<svg id="Layer_1" data-name="Layer 1" xmlns="http://www.w3.org/2000/svg" viewBox="0 0 256 256"><defs><style>.cls-1{fill:#125;}</style></defs><title>savers</title><path class="cls-1" d="M32,64v64H56v-8H48a8,8,0,0,0-8-8V80a8,8,0,0,0,8-8h96a8,8,0,0,0,8,8v8h8V64Z"/><path class="cls-1" d="M192,96v24h-8v-8a8,8,0,0,1-8-8H80a8,8,0,0,1-8,8v32a8,8,0,0,1,8,8h8v8H64V96Z"/><path class="cls-1" d="M96,128v64H224V128Zm120,48a8,8,0,0,0-8,8H112a8,8,0,0,0-8-8V144a8,8,0,0,0,8-8h96a8,8,0,0,0,8,8Z"/><circle class="cls-1" cx="160" cy="160" r="16"/><rect class="cls-1" x="112" y="156" width="24" height="8"/><rect class="cls-1" x="184" y="156" width="24" height="8"/></svg>