<svg id="Layer_1" data-name="Layer 1" xmlns="http://www.w3.org/2000/svg" viewBox="0 0 256 256"><defs><style>.cls-1{fill:#125;}</style></defs><title>taxpayers</title><path class="cls-1" d="M188.15,110.54a23.45,23.45,0,0,1-2.8,11.57,19.86,19.86,0,0,1-8.37,8,23.71,23.71,0,0,1-6.34,2.21V144H159.75V132.82a36.36,36.36,0,0,1-8.93-2.07A29,29,0,0,1,140,123.68l7.41-10.22a26.08,26.08,0,0,0,8,4.83,23.64,23.64,0,0,0,7.81,1.35c3.21,0,5.54-.68,7-2a7.49,7.49,0,0,0,2.13-5.72,6.44,6.44,0,0,0-2.13-4.83,26.44,26.44,0,0,0-5.5-3.87c-2.25-1.24-4.62-2.51-7.13-3.82a55.74,55.74,0,0,1-7.19-4.49,21,21,0,0,1-5.56-6.07,16.09,16.09,0,0,1-2.13-8.47A21.88,21.88,0,0,1,145.54,69a18.92,18.92,0,0,1,8.09-7.41,24.06,24.06,0,0,1,6.12-2V48h10.89V59.32a24.59,24.59,0,0,1,7.69,2.32,30.21,30.21,0,0,1,9.15,7.13l-8.42,9a18.78,18.78,0,0,0-5.84-4,16.87,16.87,0,0,0-6.74-1.35,8.89,8.89,0,0,0-5.83,1.75c-1.42,1.16-2.14,3-2.14,5.44A5.72,5.72,0,0,0,160.65,84a26.28,26.28,0,0,0,5.5,3.53c2.24,1.13,4.64,2.34,7.18,3.65a53.34,53.34,0,0,1,7.19,4.44,20,20,0,0,1,5.5,6.12A17.19,17.19,0,0,1,188.15,110.54Z"/><rect class="cls-1" x="32" y="144" width="16" height="48"/><polygon class="cls-1" points="128 144 128 160 96 160 128 176 144 176 192 160 208 176 128 208 64 192 64 144 128 144"/></svg>