<svg id="Layer_1" data-name="Layer 1" xmlns="http://www.w3.org/2000/svg" viewBox="0 0 96 96"><defs><style>.cls-1{fill:#125;}</style></defs><title>Munidollar</title><path class="cls-1" d="M30,64V32h9.06l4.82,13.1c.3.88.58,1.8.84,2.75s.54,1.91.84,2.86h.19c.3-1,.58-1.91.84-2.86s.54-1.87.84-2.75L52.06,32h9V64H53.43V54.55c0-1.09.07-2.39.2-3.92s.28-3.05.44-4.57.32-2.84.45-3.92h-.2l-2.66,8.67L47.72,61.39H43.19L39.26,50.81,36.7,42.14h-.2c.13,1.08.28,2.39.44,3.92s.31,3,.44,4.57.2,2.83.2,3.92V64ZM87.77,50.52a8.38,8.38,0,0,0-2.11-2.86,11.57,11.57,0,0,0-3.38-2L80,44.77l-1.59-.62-2.5-1a5.25,5.25,0,0,1-1.64-.93A1.62,1.62,0,0,1,73.7,41a1.76,1.76,0,0,1,.91-1.62A4.69,4.69,0,0,1,77,38.81a8.83,8.83,0,0,1,3,.56h0a13.54,13.54,0,0,1,3.19,1.69l4.41-5.49a14.31,14.31,0,0,0-4.93-3A17,17,0,0,0,80,31.83V16H16V80H80V64.16a11.9,11.9,0,0,0,2.82-1,10.37,10.37,0,0,0,4.23-3.75,9.3,9.3,0,0,0,1.45-5A9.59,9.59,0,0,0,87.77,50.52ZM73,73H23V23H73v9.09a11.5,11.5,0,0,0-2.12.82,10.81,10.81,0,0,0-4.18,3.58,8.56,8.56,0,0,0-1.52,5,8.78,8.78,0,0,0,.88,4,9,9,0,0,0,2.35,2.94,12.16,12.16,0,0,0,3.19,1.89l1.4.59L75.56,52c.92.35,1.69.67,2.33,1a5.41,5.41,0,0,1,1.47.88,1.62,1.62,0,0,1,.52,1.25A1.91,1.91,0,0,1,79,56.75a5,5,0,0,1-2.77.59,11.58,11.58,0,0,1-3.25-.5l-.77-.24a12.74,12.74,0,0,1-3.82-2.11L64,60a16.44,16.44,0,0,0,5.76,3.51,18.37,18.37,0,0,0,3.24.83Z"/></svg>