<svg id="Layer_1" data-name="Layer 1" xmlns="http://www.w3.org/2000/svg" viewBox="0 0 256 256"><defs><style>.cls-1{fill:#125;}</style></defs><title>vendors</title><path class="cls-1" d="M224,80V96a16,16,0,0,1-32,0,16,16,0,0,1-32,0,16,16,0,0,1-32,0,16,16,0,0,1-32,0,16,16,0,0,1-32,0,16,16,0,0,1-32,0V80L64,48H192Z"/><path class="cls-1" d="M192,113.87a23.95,23.95,0,0,1-32,0,23.95,23.95,0,0,1-32,0,23.95,23.95,0,0,1-32,0,23.95,23.95,0,0,1-32,0A23.9,23.9,0,0,1,48,120v88h96V144h48v64h16V120A23.9,23.9,0,0,1,192,113.87ZM120,176H72V144h48Z"/></svg>