<svg id="Layer_1" data-name="Layer 1" xmlns="http://www.w3.org/2000/svg" xmlns:xlink="http://www.w3.org/1999/xlink" viewBox="0 0 256 256"><defs><style>.cls-1,.cls-3{fill:none;}.cls-2{clip-path:url(#clip-path);}.cls-3{stroke:#fff;stroke-miterlimit:10;stroke-width:8px;opacity:0.1;}</style><clipPath id="clip-path"><rect class="cls-1" width="256" height="256"/></clipPath></defs><title>bg-logo-dark</title><g class="cls-2"><path class="cls-3" d="M240,222.39,81.61,380.78-76.78,222.39,81.61,64Zm-88,52.8,52.8-52.8L81.61,99.2,28.81,152l17.6,17.59a62.23,62.23,0,1,1,88,88Zm-70.39,70.4,52.8-52.8-17.6-17.6a62.23,62.23,0,0,1-88-88l-17.6-17.6-52.8,52.8ZM64,187.19l52.8,52.8A37.34,37.34,0,0,0,64,187.19Zm-17.6,17.6a37.34,37.34,0,0,0,52.8,52.8Z"/></g></svg>