<?xml version="1.0" standalone="no"?>
<!DOCTYPE svg PUBLIC "-//W3C//DTD SVG 20010904//EN"
 "http://www.w3.org/TR/2001/REC-SVG-20010904/DTD/svg10.dtd">
<svg version="1.0" xmlns="http://www.w3.org/2000/svg"
 width="700.000000pt" height="700.000000pt" viewBox="0 0 700.000000 700.000000"
 preserveAspectRatio="xMidYMid meet">
<metadata>
Created by potrace 1.11, written by Peter Selinger 2001-2013
</metadata>
<g transform="translate(0.000000,700.000000) scale(0.100000,-0.100000)"
fill="#000000" stroke="none">
<path d="M0 3500 l0 -3500 3500 0 3500 0 0 3500 0 3500 -3500 0 -3500 0 0
-3500z m3105 2334 l0 -389 -50 -1 c-227 -7 -495 -64 -690 -147 -527 -224 -921
-649 -1099 -1187 -25 -74 -47 -148 -50 -165 -3 -16 -12 -66 -20 -110 -36 -201
-38 -442 -5 -640 16 -96 17 -98 29 -150 88 -365 302 -728 576 -975 108 -97
127 -112 226 -179 120 -79 204 -126 308 -170 41 -18 84 -36 95 -41 49 -21 193
-64 249 -74 14 -3 29 -7 33 -9 5 -3 33 -8 63 -12 30 -4 66 -9 80 -11 66 -9
146 -16 200 -17 l60 -1 0 -388 c0 -363 -1 -388 -17 -389 -120 -4 -2305 0
-2310 5 -4 4 -8 5286 -4 5413 1 15 8 23 24 25 12 2 535 3 1162 2 l1140 -1 0
-389z m3116 366 c4 -160 0 -5412 -4 -5417 -4 -3 -527 -6 -1164 -6 l-1158 0 -3
389 -2 390 42 0 c52 1 211 14 247 21 14 2 46 8 71 13 223 42 495 147 658 255
30 19 56 35 58 35 2 0 12 6 21 14 10 8 46 36 81 62 184 136 371 346 493 552
145 244 227 497 264 806 8 67 8 320 0 381 -42 326 -122 561 -283 830 -20 33
-38 62 -42 65 -3 3 -13 17 -23 32 -9 15 -47 64 -82 107 -330 405 -822 666
-1335 707 -47 4 -104 7 -127 8 l-43 0 0 386 c0 213 2 389 4 391 2 2 527 4
1165 4 l1161 0 1 -25z m-3111 -2700 l0 -1168 -67 4 c-335 19 -663 195 -866
464 -202 268 -279 636 -202 968 75 320 291 602 585 760 128 69 275 116 405
129 33 3 61 6 62 7 1 1 21 2 43 3 l40 1 0 -1168z m1000 1144 c340 -61 639
-282 807 -594 184 -341 183 -775 -1 -1105 -32 -57 -77 -129 -85 -135 -4 -3
-17 -18 -29 -34 -194 -253 -514 -420 -844 -440 l-68 -5 0 1169 0 1169 68 -4
c37 -3 105 -12 152 -21z"/>
</g>
</svg>
